<?xml version="1.0" standalone="no"?>
<!DOCTYPE svg PUBLIC "-//W3C//DTD SVG 20010904//EN"
 "http://www.w3.org/TR/2001/REC-SVG-20010904/DTD/svg10.dtd">
<svg version="1.0" xmlns="http://www.w3.org/2000/svg"
 width="800.000000pt" height="245.000000pt" viewBox="0 0 800.000000 245.000000"
 preserveAspectRatio="xMidYMid meet">

<g transform="translate(0.000000,245.000000) scale(0.100000,-0.100000)"
fill="#000000" stroke="none">
<path d="M0 1225 l0 -1225 4000 0 4000 0 0 1225 0 1225 -4000 0 -4000 0 0
-1225z m2475 428 c33 -9 77 -16 98 -16 24 1 37 -3 37 -12 0 -20 -92 -216 -101
-213 -3 2 -22 23 -41 48 -46 61 -88 72 -149 39 -35 -20 -51 -38 -79 -93 -34
-67 -35 -73 -35 -180 0 -94 4 -118 23 -161 13 -27 33 -60 45 -73 44 -47 109
-66 135 -40 19 19 16 232 -4 274 -9 19 -20 34 -25 34 -5 0 -9 7 -9 15 0 13 22
15 140 15 150 0 159 -3 118 -48 -22 -23 -23 -32 -26 -228 -3 -218 -4 -220 -53
-194 -14 8 -37 6 -88 -10 -127 -37 -227 -19 -313 58 -86 78 -128 192 -128 349
0 50 5 116 11 145 50 232 232 351 444 291z m-1010 -10 c56 -19 123 -81 154
-142 47 -91 66 -282 41 -411 -23 -119 -89 -217 -175 -256 -47 -22 -62 -24
-237 -24 -111 0 -188 4 -188 9 0 6 10 27 23 48 21 37 22 48 25 338 4 306 -3
390 -34 415 -7 7 -14 19 -14 26 0 22 339 20 405 -3z m515 8 c0 -6 -10 -27 -22
-48 -22 -37 -23 -47 -26 -349 -4 -315 1 -376 33 -408 8 -8 15 -22 15 -30 0
-14 -19 -16 -135 -16 -150 0 -156 3 -112 61 22 30 22 34 22 374 0 340 0 344
-22 374 -13 16 -23 35 -23 41 0 6 48 10 135 10 78 0 135 -4 135 -9z m970 -1
c0 -6 -10 -25 -22 -41 -23 -30 -23 -33 -23 -384 0 -322 2 -355 18 -372 9 -11
17 -27 17 -36 0 -15 -16 -17 -135 -17 -87 0 -135 4 -135 10 0 6 10 25 23 41
22 30 22 33 22 379 0 348 0 348 -23 379 -13 17 -20 36 -17 41 9 14 275 13 275
0z m286 4 c17 -4 32 -36 74 -156 l54 -150 26 68 c14 38 39 106 55 152 l30 82
112 0 c118 0 130 -5 97 -41 -26 -29 -27 -85 -6 -395 16 -244 23 -298 40 -337
23 -52 31 -56 55 -29 32 35 47 95 97 379 54 311 58 363 35 387 -33 32 -17 36
143 36 l157 0 58 -350 c32 -192 63 -365 68 -385 6 -19 23 -51 40 -69 16 -19
29 -36 29 -40 0 -3 -63 -6 -140 -6 -142 0 -157 4 -125 36 10 10 15 35 15 74
l0 58 -75 4 c-55 2 -76 0 -80 -10 -10 -28 -5 -99 10 -118 33 -43 30 -44 -255
-44 -283 0 -290 1 -252 43 20 22 23 145 8 352 l-8 120 -35 -90 c-18 -49 -45
-121 -59 -158 -19 -48 -31 -67 -42 -65 -9 2 -35 57 -70 156 -30 84 -56 151
-58 150 -4 -6 -25 -294 -26 -364 -1 -52 4 -80 16 -98 9 -14 16 -30 16 -36 0
-6 -49 -10 -135 -10 -143 0 -153 4 -116 44 33 38 41 87 63 404 l22 314 -22 42
c-12 22 -22 44 -22 49 0 8 175 10 206 1z m1585 -20 c162 -48 214 -265 90 -377
-21 -19 -44 -36 -51 -39 -9 -3 0 -42 35 -148 54 -165 64 -187 99 -221 14 -13
26 -32 26 -41 0 -16 -13 -18 -135 -18 -127 0 -135 1 -135 19 0 11 5 23 10 26
18 11 11 59 -25 181 -19 65 -37 124 -39 130 -2 6 -18 9 -36 6 l-32 -5 4 -131
c4 -123 18 -186 40 -186 4 0 8 -9 8 -20 0 -19 -7 -20 -112 -20 -117 0 -158 6
-158 22 0 5 10 23 23 39 22 30 22 34 22 374 0 340 0 344 -22 374 -13 16 -23
35 -23 41 0 18 346 13 411 -6z m489 4 c0 -6 -10 -22 -22 -36 -20 -20 -23 -36
-26 -120 l-4 -97 42 55 c74 98 93 136 86 175 l-7 35 131 0 c86 0 130 -4 130
-11 0 -6 -22 -36 -48 -67 -27 -31 -78 -95 -114 -142 l-65 -85 72 -195 c83
-224 102 -264 143 -304 l30 -28 19 28 c17 26 18 55 18 380 l0 352 -24 25 c-12
14 -20 30 -16 36 4 7 78 11 220 11 l214 0 5 -42 c19 -151 19 -158 -2 -158 -11
0 -25 6 -31 14 -15 17 -87 36 -140 36 l-41 0 0 -95 c0 -93 0 -95 24 -95 37 0
86 21 97 41 5 10 16 19 24 19 12 0 15 -22 15 -130 0 -104 -3 -130 -14 -130 -7
0 -19 7 -27 16 -18 22 -64 44 -94 44 l-25 0 0 -116 0 -116 84 3 c68 3 90 8
115 27 16 12 35 22 41 22 6 0 10 -37 10 -100 l0 -100 -380 0 c-324 0 -380 2
-380 14 0 8 5 18 10 21 20 12 9 72 -39 218 -48 148 -48 148 -64 123 -14 -20
-17 -52 -18 -150 -1 -109 1 -130 20 -166 11 -22 21 -45 21 -50 0 -6 -55 -10
-135 -10 -87 0 -135 4 -135 10 0 6 10 25 23 41 22 30 22 33 22 379 0 346 0
349 -22 379 -13 16 -23 35 -23 41 0 6 50 10 140 10 101 0 140 -3 140 -12z
m1364 2 c9 -10 24 -185 16 -194 -5 -4 -21 1 -37 13 -25 18 -95 40 -130 41 -10
0 -13 -68 -13 -306 0 -261 2 -311 16 -340 9 -19 20 -34 25 -34 5 0 9 -7 9 -15
0 -13 -22 -15 -140 -15 -150 0 -159 3 -117 48 22 23 22 27 25 344 l3 320 -43
-7 c-24 -4 -62 -16 -86 -27 -24 -11 -46 -18 -49 -15 -3 3 -2 49 2 102 l8 97
252 -4 c140 -1 256 -5 259 -8z"/>
<path d="M2305 1631 c-125 -32 -216 -142 -244 -296 -30 -162 10 -341 95 -429
44 -46 80 -64 149 -77 47 -8 68 -7 130 10 42 12 86 21 100 21 l25 0 0 143 c1
133 7 198 25 240 6 15 -1 17 -75 17 -74 0 -81 -2 -75 -17 19 -45 27 -112 23
-200 -3 -85 -5 -97 -27 -114 -46 -38 -127 -21 -183 38 -51 53 -72 118 -76 233
-5 120 10 188 58 263 60 95 180 116 246 44 l32 -35 27 60 c15 33 25 61 23 62
-1 1 -29 10 -61 20 -70 21 -150 28 -192 17z"/>
<path d="M1126 1609 c4 -13 10 -173 11 -355 3 -267 1 -340 -10 -373 l-15 -41
150 0 c139 0 153 2 203 26 30 14 66 39 81 57 67 79 101 213 91 356 -12 168
-62 265 -162 316 -57 29 -67 30 -209 34 l-149 3 9 -23z m248 -68 c78 -19 131
-104 144 -233 11 -110 -3 -212 -38 -283 -41 -81 -67 -99 -157 -103 l-73 -4 0
316 0 316 43 0 c23 0 59 -5 81 -9z"/>
<path d="M1280 1230 l0 -280 43 0 c109 1 162 96 162 290 0 126 -18 186 -72
243 -23 23 -35 27 -80 27 l-53 0 0 -280z"/>
<path d="M1777 1598 c10 -29 11 -694 0 -730 l-7 -28 75 0 75 0 -7 28 c-10 35
-10 689 0 725 l7 27 -75 0 c-75 0 -76 0 -68 -22z"/>
<path d="M2742 1598 c10 -17 14 -99 16 -309 3 -260 -4 -394 -23 -441 -6 -16 1
-18 75 -18 74 0 81 2 75 18 -21 49 -25 111 -24 372 0 263 4 336 24 383 6 15
-1 17 -74 17 l-82 0 13 -22z"/>
<path d="M3095 1593 c10 -39 7 -129 -10 -375 -18 -260 -23 -304 -41 -347 -8
-18 -14 -35 -14 -37 0 -2 36 -4 81 -4 73 0 80 2 74 18 -16 41 -17 79 -6 229
21 290 19 283 50 283 25 0 29 -8 75 -133 26 -74 51 -139 55 -146 5 -7 30 48
62 131 50 133 56 143 82 146 21 3 27 -1 27 -15 0 -10 7 -109 14 -220 13 -184
11 -251 -8 -282 -5 -8 17 -11 77 -11 l84 0 -18 53 c-20 61 -54 544 -47 664 l5
73 -68 0 -68 0 -19 -52 c-11 -29 -41 -112 -68 -185 -27 -73 -49 -131 -51 -130
-1 2 -31 84 -67 182 l-64 180 -72 3 -72 3 7 -28z"/>
<path d="M3954 1587 c4 -20 -8 -116 -29 -243 -67 -396 -76 -435 -113 -506 -2
-5 32 -8 75 -8 l78 0 -3 66 c-6 116 -8 114 112 114 l104 0 6 -63 c4 -35 4 -76
1 -90 l-7 -27 76 0 c68 0 92 9 67 24 -16 10 -40 124 -93 444 l-53 322 -113 0
-114 0 6 -33z m151 -89 c7 -36 55 -378 55 -399 0 -17 -8 -19 -91 -19 l-91 0 5
28 c3 15 18 114 33 220 l28 192 28 0 c21 0 29 -6 33 -22z"/>
<path d="M4071 1462 c-1 -15 -38 -261 -46 -309 l-6 -33 51 0 c48 0 50 1 49 28
-1 34 -46 332 -48 314z"/>
<path d="M4476 1599 c12 -31 12 -706 0 -741 l-8 -28 77 0 c76 0 77 0 70 23 -5
12 -10 90 -12 172 l-4 151 57 12 c32 6 59 11 60 9 11 -11 94 -327 91 -344 -4
-22 -2 -23 75 -23 l78 0 -24 38 c-14 20 -48 109 -77 197 l-52 159 24 16 c94
60 129 137 105 230 -15 58 -44 93 -101 123 -35 19 -61 22 -204 25 l-163 4 8
-23z m259 -69 c24 -5 51 -21 69 -41 25 -29 28 -37 24 -86 -7 -79 -41 -110
-147 -133 l-81 -18 0 137 c0 76 3 141 7 144 9 10 81 8 128 -3z"/>
<path d="M4630 1396 l0 -104 56 13 c89 20 131 79 104 144 -14 36 -48 51 -110
51 l-50 0 0 -104z"/>
<path d="M5102 1588 c10 -17 14 -99 16 -304 3 -254 -4 -388 -23 -436 -6 -16 1
-18 73 -18 l80 0 -14 38 c-8 23 -13 84 -14 160 l0 124 42 53 c23 30 44 53 46
51 12 -13 123 -385 119 -403 -4 -22 -2 -23 79 -23 l83 0 -29 48 c-27 44 -180
441 -180 468 0 6 37 60 83 119 45 58 88 115 96 126 13 18 10 19 -62 19 l-74 0
-7 -39 c-8 -52 -188 -298 -194 -266 -9 40 5 261 16 283 13 22 13 22 -68 22
l-81 0 13 -22z"/>
<path d="M5722 1588 c10 -17 14 -101 16 -316 3 -265 -3 -384 -23 -434 -7 -17
6 -18 184 -18 l191 0 0 56 c0 50 -2 55 -17 48 -26 -11 -198 -28 -217 -21 -14
5 -16 27 -16 151 0 80 4 147 9 150 9 6 105 -8 134 -19 15 -6 17 0 17 54 0 59
0 60 -23 52 -13 -5 -48 -11 -78 -13 l-54 -3 -3 95 c-2 52 0 110 3 128 l6 32
72 0 c40 -1 89 -7 110 -14 42 -15 42 -14 31 57 l-7 37 -174 0 -174 0 13 -22z"/>
<path d="M6190 1556 l0 -54 38 14 c20 7 61 13 90 14 l52 0 0 -297 c-1 -275 -5
-349 -25 -395 -6 -16 1 -18 75 -18 74 0 81 2 75 18 -20 46 -24 120 -25 396 l0
299 74 -6 c41 -3 84 -11 97 -17 20 -11 21 -11 16 11 -4 13 -7 39 -7 57 l0 32
-230 0 -230 0 0 -54z"/>
</g>
</svg>
