<?xml version="1.0" standalone="no"?>
<!DOCTYPE svg PUBLIC "-//W3C//DTD SVG 20010904//EN"
 "http://www.w3.org/TR/2001/REC-SVG-20010904/DTD/svg10.dtd">
<svg version="1.0" xmlns="http://www.w3.org/2000/svg"
 width="2000.000000pt" height="221.000000pt" viewBox="0 0 2000.000000 221.000000"
 preserveAspectRatio="xMidYMid meet">

<g transform="translate(0.000000,221.000000) scale(0.100000,-0.100000)"
fill="#000000" stroke="none">
<path d="M5405 2034 c-22 -2 -123 -8 -225 -14 -102 -6 -204 -13 -227 -17 l-43
-5 0 -734 0 -734 399 0 c312 0 417 3 486 15 239 42 431 177 526 370 60 122 73
187 73 350 1 169 -20 261 -91 404 -38 78 -61 110 -132 182 -97 98 -187 149
-308 174 -62 13 -331 18 -458 9z m340 -477 c51 -55 69 -113 63 -199 -7 -111
-61 -185 -222 -309 l-91 -70 -3 277 c-3 306 -5 293 63 336 23 15 43 18 89 15
56 -3 62 -6 101 -50z"/>
<path d="M7975 2034 c-267 -40 -468 -129 -609 -270 -118 -117 -175 -238 -197
-409 -27 -213 48 -440 195 -589 200 -203 485 -293 841 -266 118 9 316 33 373
45 l22 5 0 340 0 340 -240 0 -240 0 0 -109 c0 -73 -4 -112 -12 -117 -6 -4 -37
-7 -69 -7 -123 2 -199 86 -199 221 0 191 140 334 354 363 80 11 197 2 276 -21
19 -6 38 -10 43 -10 4 0 6 100 5 222 l-3 222 -70 19 c-54 15 -111 20 -255 22
-102 2 -198 1 -215 -1z"/>
<path d="M13845 2034 c-27 -2 -135 -8 -240 -14 -104 -6 -209 -13 -232 -17
l-43 -5 0 -734 0 -734 300 0 300 0 2 210 3 210 125 -206 c69 -114 129 -208
135 -210 6 -3 169 -3 364 -2 l353 3 -197 258 c-108 142 -195 259 -194 261 184
129 258 232 281 394 31 213 -79 421 -272 516 -128 63 -160 68 -410 71 -124 1
-247 1 -275 -1z m366 -379 c36 -19 49 -50 49 -117 0 -105 -74 -193 -223 -267
-45 -22 -88 -41 -95 -41 -9 0 -12 45 -12 178 l0 179 64 27 c75 32 143 54 169
55 10 1 31 -6 48 -14z"/>
<path d="M12183 2005 c-28 -14 -59 -38 -69 -53 -19 -29 -744 -1410 -744 -1418
0 -2 145 -4 323 -4 l322 0 25 72 25 73 199 0 200 0 29 -72 29 -73 374 0 373 0
-38 68 c-21 37 -197 351 -391 697 -194 347 -364 645 -377 664 -55 73 -183 94
-280 46z m157 -843 l67 -187 -74 -3 c-40 -2 -106 -2 -147 0 l-73 3 75 193 c41
106 78 190 80 187 3 -3 36 -90 72 -193z"/>
<path d="M6500 1265 l0 -735 285 0 285 0 0 735 0 735 -285 0 -285 0 0 -735z"/>
<path d="M8730 1265 l0 -735 285 0 285 0 0 735 0 735 -285 0 -285 0 0 -735z"/>
<path d="M9440 1265 l0 -735 255 0 255 0 2 232 3 232 179 -197 c99 -108 182
-197 185 -197 3 0 87 90 186 199 99 110 183 200 188 200 4 1 7 -105 7 -234 l0
-235 300 0 300 0 0 735 0 735 -102 0 -103 -1 -365 -333 -364 -334 -136 128
c-74 70 -234 220 -355 334 l-220 206 -107 0 -108 0 0 -735z"/>
<path d="M15020 1265 l0 -735 295 0 295 0 0 233 c0 208 2 235 18 260 l19 27
153 -260 153 -260 334 0 c264 0 333 3 327 13 -4 6 -123 193 -265 414 -143 221
-261 408 -264 415 -5 13 61 103 387 526 l79 102 -299 0 -299 0 -174 -222 -174
-222 -3 222 -2 222 -290 0 -290 0 0 -735z"/>
<path d="M16740 1265 l0 -735 545 0 545 0 0 210 0 210 -260 0 -260 0 0 75 0
75 245 0 245 0 -2 178 -3 177 -242 3 -243 2 0 60 0 60 245 0 245 0 0 210 0
210 -530 0 -530 0 0 -735z"/>
<path d="M17910 1765 l0 -235 203 -2 202 -3 3 -497 2 -498 285 0 285 0 2 498
3 497 203 3 202 2 0 235 0 235 -695 0 -695 0 0 -235z"/>
<path d="M988 1956 c-78 -21 -141 -80 -166 -155 -8 -21 -12 -111 -12 -242 l0
-209 662 0 c656 0 662 0 643 19 -11 11 -171 151 -355 310 l-335 291 -195 -1
c-124 0 -212 -5 -242 -13z"/>
<path d="M2245 1943 c17 -14 243 -211 503 -436 448 -389 472 -412 455 -428
-10 -9 -241 -209 -513 -445 l-494 -429 944 -3 c1046 -2 1008 -5 1086 62 24 20
50 57 63 86 21 50 22 51 19 747 l-3 698 -28 48 c-35 60 -93 102 -158 116 -34
7 -354 11 -977 11 l-927 -1 30 -26z m1570 -611 c47 -24 105 -83 131 -132 14
-26 19 -57 19 -115 0 -90 -14 -125 -74 -188 -59 -63 -104 -82 -196 -82 -92 0
-137 19 -196 82 -50 52 -70 96 -76 163 -12 128 71 250 197 291 43 14 152 4
195 -19z"/>
<path d="M810 620 c0 -253 3 -268 60 -334 66 -75 89 -81 322 -84 l206 -3 371
321 c204 177 371 324 371 326 0 2 -299 4 -665 4 l-665 0 0 -230z"/>
</g>
</svg>
